<svg xmlns="http://www.w3.org/2000/svg" xmlns:xlink="http://www.w3.org/1999/xlink" width="1080" zoomAndPan="magnify" viewBox="0 0 810 809.999993" height="1080" preserveAspectRatio="xMidYMid meet" version="1.0"><defs><clipPath id="93aecae234"><path d="M 37.074219 37.074219 L 772.824219 37.074219 L 772.824219 772.824219 L 37.074219 772.824219 Z M 37.074219 37.074219 " clip-rule="nonzero"/></clipPath></defs><g clip-path="url(#93aecae234)"><path fill="#17320c" d="M 633.238281 37.074219 L 176.757812 37.074219 C 99.765625 37.074219 37.074219 99.765625 37.074219 176.757812 L 37.074219 633.1875 C 37.074219 710.230469 99.765625 772.867188 176.757812 772.867188 L 633.1875 772.867188 C 710.230469 772.867188 772.867188 710.179688 772.867188 633.1875 L 772.867188 176.757812 C 772.867188 99.714844 710.179688 37.074219 633.1875 37.074219 Z M 731.660156 633.238281 C 731.660156 687.511719 687.511719 731.660156 633.238281 731.660156 L 176.757812 731.660156 C 122.484375 731.660156 78.335938 687.511719 78.335938 633.238281 L 78.335938 176.757812 C 78.335938 122.484375 122.484375 78.335938 176.757812 78.335938 L 633.1875 78.335938 C 687.457031 78.335938 731.609375 122.484375 731.609375 176.757812 L 731.609375 633.1875 Z M 588.882812 400.503906 C 588.882812 411.917969 579.636719 421.160156 568.226562 421.160156 L 425.652344 421.160156 L 425.652344 563.734375 C 425.652344 575.144531 416.410156 584.390625 404.996094 584.390625 C 393.585938 584.390625 384.34375 575.144531 384.34375 563.734375 L 384.34375 421.160156 L 241.769531 421.160156 C 230.359375 421.160156 221.113281 411.917969 221.113281 400.503906 C 221.113281 389.09375 230.359375 379.851562 241.769531 379.851562 L 384.34375 379.851562 L 384.34375 237.277344 C 384.34375 225.863281 393.585938 216.621094 404.996094 216.621094 C 416.410156 216.621094 425.652344 225.863281 425.652344 237.277344 L 425.652344 379.851562 L 568.226562 379.851562 C 579.636719 379.851562 588.882812 389.09375 588.882812 400.503906 Z M 588.882812 400.503906 " fill-opacity="1" fill-rule="nonzero"/></g></svg>