<svg xmlns="http://www.w3.org/2000/svg" xmlns:xlink="http://www.w3.org/1999/xlink" width="1080" zoomAndPan="magnify" viewBox="0 0 810 809.999993" height="1080" preserveAspectRatio="xMidYMid meet" version="1.0"><defs><clipPath id="20dd49ab43"><path d="M 47 48 L 765 48 L 765 765.988281 L 47 765.988281 Z M 47 48 " clip-rule="nonzero"/></clipPath></defs><g clip-path="url(#20dd49ab43)"><path fill="#17320c" d="M 398.054688 48.324219 C 205.144531 52.457031 51.027344 206.894531 47.210938 399.910156 C 43.289062 597.382812 200.585938 761.570312 397.949219 765.914062 C 400.601562 766.023438 403.25 766.023438 405.898438 766.023438 C 469.074219 766.023438 530.65625 749.59375 585.03125 718.21875 L 688.273438 737.296875 C 702.371094 739.839844 716.890625 735.390625 726.960938 725.214844 C 737.136719 715.039062 741.589844 700.621094 739.046875 686.523438 L 719.648438 581.589844 C 751.128906 525.09375 766.710938 461.070312 764.800781 395.988281 C 758.761719 200.003906 594.464844 43.976562 398.054688 48.324219 Z M 679.15625 581.695312 L 699.828125 693.734375 C 700.144531 695.324219 699.402344 696.382812 698.765625 697.019531 C 698.128906 697.65625 697.070312 698.394531 695.480469 698.078125 L 584.925781 677.621094 C 580.15625 676.773438 575.175781 677.621094 571.042969 680.164062 C 519.316406 711.539062 459.640625 727.332031 398.796875 726.0625 C 223.375 722.246094 83.460938 576.289062 86.957031 400.652344 C 90.351562 229.152344 227.402344 91.886719 398.902344 88.070312 C 401.234375 88.070312 403.566406 87.964844 405.898438 87.964844 C 577.296875 87.964844 719.648438 225.230469 724.949219 397.15625 C 726.75 457.257812 711.804688 516.296875 681.488281 567.914062 C 679.050781 572.050781 678.203125 576.925781 679.15625 581.695312 Z M 679.15625 581.695312 " fill-opacity="1" fill-rule="nonzero"/></g></svg>