<svg xmlns="http://www.w3.org/2000/svg" xmlns:xlink="http://www.w3.org/1999/xlink" width="1080" zoomAndPan="magnify" viewBox="0 0 810 809.999993" height="1080" preserveAspectRatio="xMidYMid meet" version="1.0"><defs><clipPath id="7838e9e616"><path d="M 54.585938 12 L 755.085938 12 L 755.085938 767.738281 L 54.585938 767.738281 Z M 54.585938 12 " clip-rule="nonzero"/></clipPath></defs><g clip-path="url(#7838e9e616)"><path fill="#17320c" d="M 743.96875 767.398438 L 513.328125 767.398438 C 506.980469 767.398438 501.835938 762.253906 501.835938 755.902344 L 501.835938 533.8125 C 501.835938 480.902344 458.300781 437.359375 405.394531 437.355469 C 352.480469 437.351562 308.933594 480.894531 308.9375 533.8125 L 308.9375 755.902344 C 308.9375 762.253906 303.792969 767.398438 297.441406 767.398438 L 66.082031 767.398438 C 59.734375 767.398438 54.585938 762.253906 54.585938 755.902344 L 54.585938 362.1875 C 54.585938 359.132812 55.800781 356.203125 57.964844 354.046875 L 396.601562 16.300781 C 401.085938 11.828125 408.339844 11.824219 412.828125 16.292969 C 525.914062 128.871094 638.996094 241.449219 752.082031 354.042969 C 754.246094 356.199219 755.464844 359.128906 755.464844 362.1875 L 755.464844 755.902344 C 755.464844 762.253906 750.320312 767.398438 743.96875 767.398438 Z M 743.96875 767.398438 " fill-opacity="1" fill-rule="nonzero"/></g></svg>