<svg xmlns="http://www.w3.org/2000/svg" xmlns:xlink="http://www.w3.org/1999/xlink" width="1080" zoomAndPan="magnify" viewBox="0 0 810 809.999993" height="1080" preserveAspectRatio="xMidYMid meet" version="1.0"><defs><clipPath id="d5e0c33f87"><path d="M 36 81 L 790 81 L 790 767.25 L 36 767.25 Z M 36 81 " clip-rule="nonzero"/></clipPath></defs><g clip-path="url(#d5e0c33f87)"><path fill="#17320c" d="M 589.632812 81.140625 C 503.015625 81.140625 440.441406 130.835938 412.75 157.992188 C 385.054688 130.835938 322.585938 81.140625 235.96875 81.140625 C 162.015625 81.140625 96.863281 123.535156 61.765625 194.484375 C 15.613281 287.757812 33.539062 406.683594 109.101562 505.644531 C 199.367188 612.65625 329.886719 716.773438 381.835938 756.59375 C 390.960938 763.570312 401.800781 767.003906 412.75 767.003906 C 423.695312 767.003906 434.539062 763.570312 443.660156 756.59375 C 495.609375 716.773438 626.128906 612.65625 717.039062 504.894531 C 792.066406 406.683594 809.992188 287.757812 763.835938 194.484375 C 728.738281 123.535156 663.589844 81.140625 589.632812 81.140625 Z M 685.589844 479.671875 C 597.898438 583.679688 470.066406 685.644531 419.1875 724.609375 C 415.433594 727.503906 410.171875 727.503906 406.414062 724.609375 C 355.539062 685.644531 227.703125 583.679688 140.65625 480.421875 C 62.195312 377.703125 67.132812 274.554688 97.9375 212.300781 C 126.167969 155.308594 177.6875 121.390625 235.96875 121.390625 C 332.785156 121.390625 396.433594 199.316406 397.078125 200.066406 C 404.699219 209.726562 421.011719 209.726562 428.632812 200.066406 C 429.277344 199.316406 492.28125 121.390625 589.742188 121.390625 C 648.023438 121.390625 699.542969 155.414062 727.773438 212.300781 C 758.472656 274.664062 763.410156 377.8125 685.589844 479.671875 Z M 685.589844 479.671875 " fill-opacity="1" fill-rule="nonzero"/></g></svg>