<svg xmlns="http://www.w3.org/2000/svg" xmlns:xlink="http://www.w3.org/1999/xlink" width="1080" zoomAndPan="magnify" viewBox="0 0 810 809.999993" height="1080" preserveAspectRatio="xMidYMid meet" version="1.0"><defs><clipPath id="95ae3bea9a"><path d="M 24.265625 89 L 785.515625 89 L 785.515625 761.25 L 24.265625 761.25 Z M 24.265625 89 " clip-rule="nonzero"/></clipPath></defs><g clip-path="url(#95ae3bea9a)"><path fill="#ea1348" d="M 785.535156 310.4375 C 785.726562 387.492188 740.933594 455.25 691.207031 510.292969 C 670.898438 532.6875 649.644531 553.945312 627.4375 574.441406 C 562.527344 634.609375 491.542969 687.5625 424.164062 744.878906 C 421.507812 747.15625 406.515625 757.214844 404.996094 761.011719 C 404.996094 761.011719 404.996094 761.203125 404.996094 761.203125 C 404.996094 761.203125 404.996094 761.011719 404.996094 761.011719 C 403.476562 757.214844 388.484375 747.15625 385.828125 744.878906 C 318.449219 687.5625 247.464844 634.609375 182.554688 574.441406 C 160.539062 553.945312 139.09375 532.6875 118.785156 510.292969 C 69.058594 455.25 24.265625 387.683594 24.457031 310.4375 C 24.644531 238.503906 61.277344 168.089844 120.300781 127.09375 C 163.765625 96.917969 219.375 81.351562 271.570312 94.257812 C 277.074219 95.585938 282.578125 97.296875 287.890625 99.195312 C 326.988281 113.429688 362.101562 138.292969 387.535156 171.316406 C 394.558594 180.425781 401.011719 190.484375 403.667969 201.683594 C 404.425781 205.101562 404.804688 208.515625 404.996094 211.933594 C 405.1875 208.515625 405.566406 205.101562 406.324219 201.683594 C 408.980469 190.484375 415.246094 180.425781 422.457031 171.316406 C 447.890625 138.292969 483.003906 113.429688 522.101562 99.195312 C 527.414062 97.296875 532.917969 95.585938 538.421875 94.257812 C 590.617188 81.351562 646.226562 97.105469 689.691406 127.09375 C 748.90625 168.28125 785.535156 238.503906 785.535156 310.4375 Z M 785.535156 310.4375 " fill-opacity="1" fill-rule="nonzero"/></g></svg>