<svg xmlns="http://www.w3.org/2000/svg" xmlns:xlink="http://www.w3.org/1999/xlink" width="1080" zoomAndPan="magnify" viewBox="0 0 810 809.999993" height="1080" preserveAspectRatio="xMidYMid meet" version="1.0"><defs><clipPath id="a0c32b36bf"><path d="M 102.597656 61.042969 L 707.097656 61.042969 L 707.097656 774 L 102.597656 774 Z M 102.597656 61.042969 " clip-rule="nonzero"/></clipPath></defs><g clip-path="url(#a0c32b36bf)"><path fill="#17320c" d="M 646.140625 61.042969 L 163.855469 61.042969 C 130.210938 61.042969 102.769531 88.484375 102.769531 122.132812 L 102.769531 717.226562 C 102.769531 738.242188 114.3125 757.296875 132.933594 766.988281 C 141.097656 771.234375 150.027344 773.414062 158.847656 773.414062 C 170.171875 773.414062 181.390625 770.039062 190.972656 763.285156 L 404.945312 613.667969 L 618.917969 763.285156 C 636.121094 775.265625 658.335938 776.789062 677.066406 767.097656 C 695.683594 757.40625 707.226562 738.351562 707.226562 717.335938 L 707.226562 122.132812 C 707.226562 88.484375 679.894531 61.042969 646.140625 61.042969 Z M 666.394531 717.226562 C 666.394531 725.5 660.621094 729.421875 658.226562 730.726562 C 655.722656 732.035156 649.296875 734.429688 642.4375 729.75 L 416.703125 571.964844 C 409.625 567.0625 400.261719 567.0625 393.292969 571.964844 L 167.667969 729.640625 C 160.808594 734.429688 154.382812 731.925781 151.878906 730.621094 C 149.375 729.3125 143.710938 725.5 143.710938 717.117188 L 143.710938 122.132812 C 143.710938 111.023438 152.75 101.988281 163.855469 101.988281 L 646.140625 101.988281 C 657.246094 101.988281 666.285156 111.023438 666.285156 122.132812 L 666.285156 717.226562 Z M 666.394531 717.226562 " fill-opacity="1" fill-rule="nonzero"/></g></svg>