<svg xmlns="http://www.w3.org/2000/svg" xmlns:xlink="http://www.w3.org/1999/xlink" width="1080" zoomAndPan="magnify" viewBox="0 0 810 809.999993" height="1080" preserveAspectRatio="xMidYMid meet" version="1.0"><defs><clipPath id="2e0d07e911"><path d="M 15.664062 31.234375 L 794 31.234375 L 794 778 L 15.664062 778 Z M 15.664062 31.234375 " clip-rule="nonzero"/></clipPath></defs><g clip-path="url(#2e0d07e911)"><path fill="#17320c" d="M 789.769531 757.027344 L 594.914062 562.175781 C 640.230469 506.1875 667.421875 434.960938 667.421875 357.488281 C 667.421875 177.800781 521.234375 31.609375 341.542969 31.609375 C 161.851562 31.609375 15.664062 177.800781 15.664062 357.488281 C 15.664062 537.179688 161.851562 683.367188 341.542969 683.367188 C 435.246094 683.367188 519.824219 643.601562 579.328125 580.074219 L 773.027344 773.773438 C 777.621094 778.363281 785.175781 778.363281 789.769531 773.773438 C 794.363281 769.179688 794.363281 761.621094 789.769531 757.027344 Z M 341.542969 659.691406 C 174.90625 659.691406 39.339844 524.125 39.339844 357.488281 C 39.339844 190.855469 174.90625 55.289062 341.542969 55.289062 C 508.175781 55.289062 643.742188 190.855469 643.742188 357.488281 C 643.742188 524.125 508.175781 659.691406 341.542969 659.691406 Z M 341.542969 659.691406 " fill-opacity="1" fill-rule="nonzero"/></g></svg>