<svg xmlns="http://www.w3.org/2000/svg" xmlns:xlink="http://www.w3.org/1999/xlink" width="1080" zoomAndPan="magnify" viewBox="0 0 810 809.999993" height="1080" preserveAspectRatio="xMidYMid meet" version="1.0"><defs><clipPath id="9c01182f60"><path d="M 42 156.925781 L 769.5 156.925781 L 769.5 699.925781 L 42 699.925781 Z M 42 156.925781 " clip-rule="nonzero"/></clipPath></defs><g clip-path="url(#9c01182f60)"><path fill="#17320c" d="M 764.707031 190.046875 C 764.707031 190.046875 765.011719 189.695312 765.160156 189.492188 C 765.363281 189.238281 765.515625 188.988281 765.664062 188.734375 C 765.816406 188.484375 766.019531 188.28125 766.171875 188.027344 C 766.320312 187.828125 766.421875 187.625 766.574219 187.371094 C 766.726562 187.070312 766.925781 186.816406 767.078125 186.515625 C 767.179688 186.3125 767.28125 186.113281 767.382812 185.910156 C 767.53125 185.605469 767.683594 185.304688 767.835938 184.953125 C 767.9375 184.75 767.988281 184.546875 768.085938 184.296875 C 768.1875 183.992188 768.339844 183.691406 768.441406 183.335938 C 768.542969 183.085938 768.59375 182.832031 768.640625 182.53125 C 768.742188 182.226562 768.792969 181.976562 768.894531 181.671875 C 768.945312 181.371094 768.996094 181.066406 769.097656 180.714844 C 769.097656 180.460938 769.199219 180.257812 769.246094 180.007812 C 769.246094 179.652344 769.347656 179.351562 769.347656 179 C 769.347656 178.746094 769.398438 178.542969 769.398438 178.292969 C 769.398438 177.988281 769.398438 177.6875 769.398438 177.332031 C 769.398438 177.082031 769.398438 176.828125 769.398438 176.527344 C 769.398438 176.273438 769.398438 175.972656 769.398438 175.71875 C 769.398438 175.417969 769.398438 175.113281 769.347656 174.8125 C 769.347656 174.558594 769.296875 174.355469 769.246094 174.105469 C 769.199219 173.75 769.148438 173.398438 769.097656 173.046875 C 769.097656 172.996094 769.097656 172.945312 769.097656 172.894531 C 769.097656 172.742188 768.996094 172.589844 768.996094 172.441406 C 768.894531 172.085938 768.84375 171.734375 768.742188 171.378906 C 768.691406 171.128906 768.59375 170.925781 768.542969 170.675781 C 768.441406 170.371094 768.339844 170.070312 768.238281 169.714844 C 768.136719 169.464844 768.035156 169.210938 767.9375 168.957031 C 767.835938 168.707031 767.683594 168.402344 767.582031 168.152344 C 767.429688 167.847656 767.28125 167.597656 767.128906 167.34375 C 767.027344 167.09375 766.875 166.890625 766.726562 166.6875 C 766.574219 166.386719 766.371094 166.132812 766.171875 165.832031 C 766.070312 165.679688 765.96875 165.527344 765.867188 165.375 C 765.867188 165.375 765.765625 165.277344 765.765625 165.226562 C 765.566406 164.972656 765.363281 164.671875 765.160156 164.417969 C 765.011719 164.214844 764.859375 164.015625 764.707031 163.8125 C 764.503906 163.609375 764.304688 163.359375 764.101562 163.15625 C 763.898438 162.957031 763.699219 162.753906 763.496094 162.550781 C 763.292969 162.398438 763.144531 162.199219 762.941406 162.046875 C 762.6875 161.84375 762.488281 161.59375 762.234375 161.390625 C 762.082031 161.238281 761.882812 161.140625 761.679688 160.988281 C 761.429688 160.785156 761.125 160.585938 760.875 160.382812 C 760.671875 160.230469 760.46875 160.128906 760.269531 159.980469 C 760.015625 159.828125 759.710938 159.625 759.460938 159.472656 C 759.207031 159.324219 758.957031 159.171875 758.652344 159.070312 C 758.402344 158.96875 758.199219 158.816406 757.945312 158.71875 C 757.644531 158.566406 757.292969 158.464844 756.988281 158.3125 C 756.785156 158.214844 756.585938 158.164062 756.382812 158.0625 C 756.03125 157.960938 755.675781 157.808594 755.375 157.707031 C 755.171875 157.65625 754.96875 157.558594 754.769531 157.507812 C 754.464844 157.40625 754.113281 157.355469 753.808594 157.253906 C 753.558594 157.203125 753.355469 157.152344 753.105469 157.101562 C 752.800781 157.050781 752.550781 157.003906 752.246094 156.953125 C 751.945312 156.953125 751.691406 156.851562 751.386719 156.851562 C 751.136719 156.851562 750.882812 156.851562 750.632812 156.851562 C 750.277344 156.851562 749.976562 156.851562 749.621094 156.851562 C 749.574219 156.851562 749.523438 156.851562 749.421875 156.851562 L 62.195312 156.851562 C 53.566406 157.050781 45.898438 162.5 43.125 170.625 C 40.296875 178.746094 42.972656 187.777344 49.730469 193.074219 L 286.441406 378.375 L 260.5625 677.898438 C 259.804688 686.472656 264.597656 694.546875 272.46875 698.078125 C 275.089844 699.238281 277.867188 699.792969 280.640625 699.792969 C 286.140625 699.792969 291.488281 697.570312 295.371094 693.382812 L 763.898438 190.953125 C 763.898438 190.953125 763.949219 190.855469 764 190.804688 C 764.253906 190.550781 764.453125 190.300781 764.65625 189.996094 Z M 652.203125 197.363281 L 310.457031 345.9375 L 120.664062 197.363281 Z M 305.765625 623.160156 L 326.5 383.015625 L 668.296875 234.390625 Z M 305.765625 623.160156 " fill-opacity="1" fill-rule="nonzero"/></g></svg>